<svg width="149.167" height="172.243" xmlns="http://www.w3.org/2000/svg">

 <g>
  <title>background</title>
  <rect fill="none" id="canvas_background" height="402" width="582" y="-1" x="-1"/>
 </g>
 <g>
  <title>Layer 1</title>
  <polygon id="svg_1" points="149.40510269999504,129.42109391093254 74.82109543681145,172.4810914695263 0.2380952537059784,129.42109391093254 0.2380952537059784,43.29909607768059 74.82109543681145,0.2380952537059784 149.40510269999504,43.29909607768059 " fill="#585858"/>
  <path id="svg_2" d="m41.88,84.75l25.09,26.783l-12.081,-26.783l-13.009,0zm32.703,31.091l14.057,-31.091l-28.113,0l14.056,31.091zm-19.574,-36.247l8.217,-15.466l-10.553,0l-11.6,15.466l13.936,0zm27.187,31.939l25.091,-26.783l-13.01,0l-12.081,26.783zm-21.347,-31.939l27.469,0l-8.217,-15.466l-11.036,0l-8.216,15.466zm33.308,0l13.936,0l-11.599,-15.466l-10.552,0l8.215,15.466zm5.678,-19.574l15.467,20.621c0.376,0.483 0.55,1.04 0.523,1.671c-0.027,0.632 -0.257,1.174 -0.686,1.632l-38.664,41.243c-0.483,0.536 -1.113,0.804 -1.893,0.804c-0.778,0 -1.408,-0.268 -1.892,-0.804l-38.664,-41.243c-0.429,-0.457 -0.658,-1 -0.685,-1.632c-0.027,-0.631 0.147,-1.188 0.523,-1.671l15.467,-20.621c0.484,-0.699 1.168,-1.047 2.054,-1.047l46.398,0c0.884,0 1.57,0.349 2.052,1.047z" fill="#FFFFFF"/>
  <path id="svg_9" d="m73.43825,76.209946l0.745,-1.30375l0.745,1.30375l-1.49,0z" fill-opacity="null" stroke-opacity="null" stroke-width="null" stroke="null" fill="#585858"/>
  <rect id="svg_10" height="82.500007" width="107.81251" y="45.183991" x="18.177254" stroke-width="4" fill="#585858"/>
  <path stroke="null" id="svg_11" d="m116.384678,85.221776l-10.836032,-10.91873l0,-26.077294l-9.289544,0l0,16.716854l-21.675603,-21.841027l-41.801178,42.120197l9.951313,-0.238914l0,42.583762l63.257371,0l0,-42.344848l10.393673,0zm-41.801178,36.254321l-20.642251,0l0,-24.961173l20.642251,0l0,24.961173zm20.054798,-10.697646l-13.564504,0l0,-14.413295l13.564504,0l0,14.413295z" stroke-width="4" fill="#ffffff"/>
 </g>
</svg>